<svg width="208" height="104" viewBox="0 0 208 104" fill="none" xmlns="http://www.w3.org/2000/svg">
<g filter="url(#filter0_d)">
<path d="M81.3623 50.5127C80.4622 50.4785 79.5565 49.4189 78.645 47.334C78.0412 45.9896 77.5228 44.4401 77.0898 42.6855C76.2467 42.8109 74.8682 42.9362 72.9541 43.0615C71.154 43.1868 69.7754 43.335 68.8184 43.5059C68.2943 44.7591 67.3828 46.6447 66.084 49.1626C65.5827 49.9829 64.8877 50.3931 63.999 50.3931C63.3724 50.3931 62.8084 50.1823 62.3071 49.7607C61.8058 49.3278 61.5552 48.7809 61.5552 48.1201C61.5552 47.5391 62.3869 45.568 64.0503 42.207C63.8908 41.8538 63.8224 41.5234 63.8452 41.2158C63.8908 40.6689 64.4434 40.2417 65.5029 39.9341C67.1208 37.1313 68.9209 34.2261 70.9033 31.2183C73.7516 26.9002 75.5062 24.7412 76.167 24.7412C77.4202 24.7412 78.2576 25.4989 78.6792 27.0142C78.9071 28.2332 79.266 30.0618 79.7559 32.5C80.4508 35.7812 81.2996 39.5353 82.3022 43.7622C82.382 44.0812 82.6725 44.8332 83.1738 46.0181C83.584 46.9979 83.7891 47.7327 83.7891 48.2227C83.7891 48.8835 83.5384 49.436 83.0371 49.8804C82.5472 50.3247 81.9889 50.5355 81.3623 50.5127ZM74.9878 32.9785C74.0991 34.5052 72.8743 36.5845 71.3135 39.2163C71.8262 39.1024 72.6237 39.0112 73.7061 38.9429C74.9821 38.8631 75.7853 38.8005 76.1157 38.7549C75.8423 37.2738 75.4663 35.3483 74.9878 32.9785Z" fill="#FF8A00"/>
<path d="M91.77 34.8755C93.4904 32.8817 95.1196 31.8848 96.6577 31.8848C98.4123 31.8848 99.6997 32.5513 100.52 33.8843C101.215 33.269 101.984 32.8076 102.827 32.5C103.67 32.1924 104.582 32.0386 105.562 32.0386C107.795 32.0386 109.31 33.1494 110.107 35.3711C110.267 35.8268 110.512 37.3706 110.842 40.0024C111.161 41.8481 111.571 44.9243 112.073 49.231C112.118 49.8804 111.896 50.4159 111.406 50.8374C110.916 51.259 110.341 51.4697 109.68 51.4697C108.37 51.4697 107.601 50.8203 107.373 49.5215C107.168 48.348 106.957 46.6903 106.741 44.5483C106.513 42.2013 106.325 40.5379 106.177 39.5581C105.869 37.5187 105.476 36.499 104.998 36.499C104.736 36.499 104.137 36.7611 103.203 37.2852C102.269 37.8092 101.585 38.2593 101.152 38.6353C101.152 39.9341 101.306 41.8026 101.614 44.2407C101.933 46.7358 102.092 48.6043 102.092 49.8462C102.092 50.4956 101.87 51.0368 101.426 51.4697C100.981 51.9027 100.417 52.1191 99.7339 52.1191C99.0503 52.1191 98.4863 51.9027 98.042 51.4697C97.5977 51.0368 97.3755 50.4956 97.3755 49.8462C97.3755 48.5474 97.2331 46.639 96.9482 44.1211C96.6748 41.5918 96.5381 39.6777 96.5381 38.3789C96.5381 37.6497 96.4754 37.0687 96.3501 36.6357C95.0285 37.3991 93.7012 38.6694 92.3682 40.4468C92.3112 40.5265 92.2144 40.6462 92.0776 40.8057C92.0321 43.1071 92.0093 44.9129 92.0093 46.2231C92.0093 46.5422 91.9979 46.9751 91.9751 47.522C91.9523 48.0575 91.9409 48.4562 91.9409 48.7183C91.9409 49.3335 91.6903 49.8177 91.189 50.1709C90.7332 50.5013 90.1693 50.6665 89.4971 50.6665C88.5286 50.6665 87.8735 50.245 87.5317 49.4019C87.2925 48.8322 87.1729 47.9264 87.1729 46.6846V40.3271C87.1729 39.7575 87.1501 38.9258 87.1045 37.832C87.0589 36.7269 87.0361 35.8895 87.0361 35.3198C87.0361 34.3058 87.2184 33.3887 87.583 32.5684C88.0273 31.543 88.654 31.0303 89.4629 31.0303C90.1009 31.0303 90.6706 31.2809 91.1719 31.7822C91.6732 32.2721 91.9238 32.8133 91.9238 33.4058C91.9238 33.1665 91.8726 33.6564 91.77 34.8755ZM159.6 36.9434C158.631 38.0371 157.463 39.5125 156.096 41.3696C154.194 43.9445 153.009 45.5282 152.542 46.1206C153.236 46.0978 153.812 46.0864 154.268 46.0864C154.723 46.0864 155.384 46.1719 156.25 46.3428C157.127 46.5023 157.788 46.582 158.232 46.582C158.916 46.582 159.48 46.7985 159.924 47.2314C160.38 47.653 160.608 48.1885 160.608 48.8379C160.608 49.4873 160.386 50.0228 159.941 50.4443C159.497 50.8659 158.927 51.0767 158.232 51.0767C157.777 51.0767 157.11 50.9969 156.233 50.8374C155.367 50.6779 154.712 50.5981 154.268 50.5981C151.715 50.5981 149.329 50.8089 147.107 51.2305C146.811 51.2874 146.56 51.3159 146.355 51.3159C145.728 51.3159 145.193 51.145 144.749 50.8032C144.247 50.4272 143.997 49.9316 143.997 49.3164C143.997 48.5872 144.355 47.9207 145.073 47.3169C147.91 44.9129 150.878 41.3981 153.977 36.7725C153.271 36.8066 152.593 36.8237 151.943 36.8237C150.2 36.8237 148.434 36.6984 146.646 36.4478C145.244 36.2541 144.543 35.5135 144.543 34.2261C144.543 33.5994 144.76 33.064 145.193 32.6196C145.626 32.1753 146.178 31.9531 146.851 31.9531C147.409 31.9531 148.252 32.0158 149.38 32.1411C150.519 32.255 151.374 32.312 151.943 32.312C152.718 32.312 153.88 32.2664 155.43 32.1753C156.979 32.0728 158.141 32.0215 158.916 32.0215C160.34 32.0215 161.052 32.6025 161.052 33.7646C161.052 34.79 160.568 35.8496 159.6 36.9434ZM170.776 51.0083C168.669 51.0083 166.857 50.2848 165.342 48.8379C163.678 47.2542 162.807 45.1408 162.727 42.4976C162.647 39.9797 163.337 37.7352 164.795 35.7642C166.527 33.4399 168.936 32.2778 172.024 32.2778C174.303 32.2778 176.114 33.1893 177.458 35.0122C178.666 36.6528 179.27 38.6865 179.27 41.1133C179.27 43.7565 178.564 46.0124 177.151 47.8809C175.567 49.9658 173.442 51.0083 170.776 51.0083ZM171.802 36.7896C170.4 36.7782 169.295 37.4162 168.486 38.7036C167.803 39.786 167.461 41.0506 167.461 42.4976C167.461 43.8647 167.848 44.9129 168.623 45.6421C169.238 46.2231 169.956 46.5137 170.776 46.5137C171.768 46.5137 172.628 46.1776 173.357 45.5054C174.189 44.7192 174.633 43.654 174.69 42.3096C174.838 38.641 173.875 36.8009 171.802 36.7896ZM195.625 51.2134C194.224 51.2134 193.443 50.5241 193.284 49.1455C193.124 47.972 192.965 46.7928 192.805 45.6079C192.634 44.3547 192.549 43.1755 192.549 42.0703C192.549 41.7741 192.566 41.2671 192.6 40.5493C192.646 39.8315 192.668 39.3245 192.668 39.0283C192.668 38.9486 192.68 38.7492 192.703 38.4302C192.725 38.0998 192.737 37.832 192.737 37.627C192.737 36.6813 192.492 36.2085 192.002 36.2085C190.954 36.2085 189.923 36.8237 188.909 38.0542C187.906 39.2733 187.12 40.8228 186.55 42.7026C186.528 43.0786 186.476 43.5799 186.396 44.2065C186.328 44.7192 186.294 45.2205 186.294 45.7104C186.294 46.0295 186.328 46.5137 186.396 47.1631C186.476 47.8011 186.516 48.2796 186.516 48.5986C186.516 49.248 186.288 49.7835 185.833 50.2051C185.388 50.638 184.824 50.8545 184.141 50.8545C183.457 50.8545 182.893 50.638 182.449 50.2051C182.004 49.7835 181.782 49.248 181.782 48.5986C181.782 48.2796 181.748 47.8011 181.68 47.1631C181.611 46.5137 181.577 46.0295 181.577 45.7104C181.577 44.6167 181.657 43.0957 181.816 41.1475C181.976 39.1992 182.056 37.6782 182.056 36.5845C182.056 36.2427 182.033 35.7357 181.987 35.0635C181.953 34.3799 181.936 33.8729 181.936 33.5425C181.936 32.9045 182.164 32.3804 182.62 31.9702C183.087 31.5487 183.656 31.3379 184.329 31.3379C185.821 31.3379 186.619 32.2323 186.721 34.021L186.738 34.209C188.402 32.5342 190.156 31.6968 192.002 31.6968C194.155 31.6968 195.642 32.5968 196.462 34.397C197.009 35.6047 197.283 37.4105 197.283 39.8145V41.0278C197.271 41.5519 197.266 41.9222 197.266 42.1387C197.266 43.0273 197.385 44.1724 197.625 45.5737C197.875 46.9751 198 48.1144 198 48.9917C198 49.6297 197.773 50.1595 197.317 50.5811C196.861 51.0026 196.297 51.2134 195.625 51.2134Z" fill="black"/>
</g>
<g filter="url(#filter1_d)">
<path d="M139.723 48.1279C139.506 48.1279 139.113 47.8773 138.543 47.376C138.031 46.9089 137.649 46.493 137.398 46.1284C136.305 46.7209 135.342 47.1652 134.51 47.4614C133.679 47.769 132.984 47.9229 132.425 47.9229C129.759 47.9229 127.817 47.1709 126.598 45.667C125.447 44.2542 124.872 42.0895 124.872 39.1729C124.872 36.4157 125.817 34.0573 127.708 32.0977C129.611 30.138 131.878 29.1582 134.51 29.1582C135.501 29.1582 136.612 29.4146 137.843 29.9272C139.392 30.5653 140.167 31.3343 140.167 32.2344C140.167 32.542 140.053 32.8154 139.825 33.0547C139.711 33.4876 139.62 34.1997 139.552 35.1909C139.495 36.1821 139.461 37.4525 139.449 39.002C139.438 40.4147 139.535 41.5312 139.74 42.3516C139.854 42.8529 140.213 43.8555 140.816 45.3594C140.896 45.5645 141.027 45.8664 141.209 46.2651L141.312 46.5557C141.312 47.0114 141.153 47.3874 140.833 47.6836C140.514 47.9798 140.144 48.1279 139.723 48.1279ZM136.168 36.2505C136.168 35.7606 136.196 35.2308 136.253 34.6611C136.322 34.0801 136.419 33.4648 136.544 32.8154C136.122 32.599 135.758 32.4395 135.45 32.3369C135.154 32.2344 134.915 32.1831 134.732 32.1831C132.966 32.1831 131.44 32.9066 130.152 34.3535C128.876 35.7891 128.238 37.4468 128.238 39.3267C128.238 41.1951 128.569 42.5965 129.229 43.5308C129.89 44.465 130.882 44.9321 132.203 44.9321C133.297 44.9321 134.225 44.7327 134.989 44.334C135.399 44.1175 135.974 43.6846 136.715 43.0352C136.35 40.016 136.168 37.7544 136.168 36.2505Z" fill="#FF8A00"/>
</g>
<g filter="url(#filter2_d)">
<path d="M75 58C75 58 79.6744 72.1429 105.124 72.1429C130.574 72.1429 142 61.8571 142 61.8571M142 61.8571L127.457 58M142 61.8571V76" stroke="#FF0000" stroke-width="5" stroke-linecap="round" stroke-linejoin="round"/>
</g>
<g filter="url(#filter3_d)">
<path d="M68 12L60 45L79.5 49V80.5L184 91.5L196 18L68 12Z" stroke="black" stroke-width="4" stroke-linecap="round" stroke-linejoin="round" shape-rendering="crispEdges"/>
</g>
<g filter="url(#filter4_d)">
<path d="M36.5 67L46.5 48.5L60.5 50.75L74.5 53V84.5L12 87.5V67H36.5Z" stroke="black" stroke-width="4" stroke-linecap="round" stroke-linejoin="round" shape-rendering="crispEdges"/>
</g>
<defs>
<filter id="filter0_d" x="51.5552" y="14.7412" width="156.445" height="47.3779" filterUnits="userSpaceOnUse" color-interpolation-filters="sRGB">
<feFlood flood-opacity="0" result="BackgroundImageFix"/>
<feColorMatrix in="SourceAlpha" type="matrix" values="0 0 0 0 0 0 0 0 0 0 0 0 0 0 0 0 0 0 127 0" result="hardAlpha"/>
<feOffset/>
<feGaussianBlur stdDeviation="5"/>
<feComposite in2="hardAlpha" operator="out"/>
<feColorMatrix type="matrix" values="0 0 0 0 1 0 0 0 0 1 0 0 0 0 1 0 0 0 1 0"/>
<feBlend mode="normal" in2="BackgroundImageFix" result="effect1_dropShadow"/>
<feBlend mode="normal" in="SourceGraphic" in2="effect1_dropShadow" result="shape"/>
</filter>
<filter id="filter1_d" x="114.872" y="19.1582" width="36.4404" height="38.9697" filterUnits="userSpaceOnUse" color-interpolation-filters="sRGB">
<feFlood flood-opacity="0" result="BackgroundImageFix"/>
<feColorMatrix in="SourceAlpha" type="matrix" values="0 0 0 0 0 0 0 0 0 0 0 0 0 0 0 0 0 0 127 0" result="hardAlpha"/>
<feOffset/>
<feGaussianBlur stdDeviation="5"/>
<feComposite in2="hardAlpha" operator="out"/>
<feColorMatrix type="matrix" values="0 0 0 0 1 0 0 0 0 1 0 0 0 0 1 0 0 0 1 0"/>
<feBlend mode="normal" in2="BackgroundImageFix" result="effect1_dropShadow"/>
<feBlend mode="normal" in="SourceGraphic" in2="effect1_dropShadow" result="shape"/>
</filter>
<filter id="filter2_d" x="62.4993" y="45.4993" width="92.0007" height="43.0007" filterUnits="userSpaceOnUse" color-interpolation-filters="sRGB">
<feFlood flood-opacity="0" result="BackgroundImageFix"/>
<feColorMatrix in="SourceAlpha" type="matrix" values="0 0 0 0 0 0 0 0 0 0 0 0 0 0 0 0 0 0 127 0" result="hardAlpha"/>
<feOffset/>
<feGaussianBlur stdDeviation="5"/>
<feComposite in2="hardAlpha" operator="out"/>
<feColorMatrix type="matrix" values="0 0 0 0 1 0 0 0 0 1 0 0 0 0 1 0 0 0 1 0"/>
<feBlend mode="normal" in2="BackgroundImageFix" result="effect1_dropShadow"/>
<feBlend mode="normal" in="SourceGraphic" in2="effect1_dropShadow" result="shape"/>
</filter>
<filter id="filter3_d" x="48" y="-3.05176e-05" width="160" height="103.5" filterUnits="userSpaceOnUse" color-interpolation-filters="sRGB">
<feFlood flood-opacity="0" result="BackgroundImageFix"/>
<feColorMatrix in="SourceAlpha" type="matrix" values="0 0 0 0 0 0 0 0 0 0 0 0 0 0 0 0 0 0 127 0" result="hardAlpha"/>
<feOffset/>
<feGaussianBlur stdDeviation="5"/>
<feComposite in2="hardAlpha" operator="out"/>
<feColorMatrix type="matrix" values="0 0 0 0 1 0 0 0 0 1 0 0 0 0 1 0 0 0 1 0"/>
<feBlend mode="normal" in2="BackgroundImageFix" result="effect1_dropShadow"/>
<feBlend mode="normal" in="SourceGraphic" in2="effect1_dropShadow" result="shape"/>
</filter>
<filter id="filter4_d" x="0" y="36.4999" width="86.5" height="63.0001" filterUnits="userSpaceOnUse" color-interpolation-filters="sRGB">
<feFlood flood-opacity="0" result="BackgroundImageFix"/>
<feColorMatrix in="SourceAlpha" type="matrix" values="0 0 0 0 0 0 0 0 0 0 0 0 0 0 0 0 0 0 127 0" result="hardAlpha"/>
<feOffset/>
<feGaussianBlur stdDeviation="5"/>
<feComposite in2="hardAlpha" operator="out"/>
<feColorMatrix type="matrix" values="0 0 0 0 1 0 0 0 0 1 0 0 0 0 1 0 0 0 1 0"/>
<feBlend mode="normal" in2="BackgroundImageFix" result="effect1_dropShadow"/>
<feBlend mode="normal" in="SourceGraphic" in2="effect1_dropShadow" result="shape"/>
</filter>
</defs>
</svg>
